<svg xmlns="http://www.w3.org/2000/svg" version="1.1" xmlns:xlink="http://www.w3.org/1999/xlink" xmlns:svgjs="http://svgjs.dev/svgjs" width="1000" height="623" viewBox="0 0 1000 623"><g transform="matrix(1,0,0,1,-0.6060606060606233,0.2522267206477409)"><svg viewBox="0 0 396 247" data-background-color="#ffffff" preserveAspectRatio="xMidYMid meet" height="623" width="1000" xmlns="http://www.w3.org/2000/svg" xmlns:xlink="http://www.w3.org/1999/xlink"><g id="tight-bounds" transform="matrix(1,0,0,1,0.2400000000000091,-0.09999999999999432)"><svg viewBox="0 0 395.52 247.2" height="247.2" width="395.52"><g><svg></svg></g><g><svg viewBox="0 0 395.52 247.2" height="247.2" width="395.52"><g transform="matrix(1,0,0,1,75.54432,89.47503079077495)"><svg viewBox="0 0 244.43135999999998 68.2499384184501" height="68.2499384184501" width="244.43135999999998"><g><svg viewBox="0 0 244.43135999999998 68.2499384184501" height="68.2499384184501" width="244.43135999999998"><g><svg viewBox="0 0 416.20462012021187 116.2123374540766" height="68.2499384184501" width="244.43135999999998"><g transform="matrix(1,0,0,1,171.77326012021192,30.07617898895905)"><svg viewBox="0 0 244.43135999999998 56.0599794761585" height="56.0599794761585" width="244.43135999999998"><g id="textblocktransform"><svg viewBox="0 0 244.43135999999998 56.0599794761585" height="56.0599794761585" width="244.43135999999998" id="textblock"><g><svg viewBox="0 0 244.43135999999998 56.0599794761585" height="56.0599794761585" width="244.43135999999998"><g transform="matrix(1,0,0,1,0,0)"><svg width="244.43135999999998" viewBox="2.75 -33.54999923706055 148.88999938964844 34.14999771118164" height="56.0599794761585" data-palette-color="#f49577"><path d="M16.55 0.6L16.55 0.6Q13.5 0.6 10.95-0.6 8.4-1.8 6.58-4.03 4.75-6.25 3.75-9.43 2.75-12.6 2.75-16.55L2.75-16.55Q2.75-20.45 3.78-23.6 4.8-26.75 6.65-28.98 8.5-31.2 11.08-32.38 13.65-33.55 16.8-33.55L16.8-33.55Q19.7-33.55 21.9-32.35 24.1-31.15 25.4-29.6L25.4-29.6 24.05-28.05Q22.7-29.6 20.9-30.53 19.1-31.45 16.85-31.45L16.85-31.45Q14.15-31.45 11.98-30.4 9.8-29.35 8.28-27.43 6.75-25.5 5.95-22.75 5.15-20 5.15-16.55L5.15-16.55Q5.15-13.1 5.95-10.33 6.75-7.55 8.25-5.6 9.75-3.65 11.88-2.58 14-1.5 16.65-1.5L16.65-1.5Q19.2-1.5 21.2-2.53 23.2-3.55 25-5.55L25-5.55 26.35-4.1Q24.45-1.9 22.1-0.65 19.75 0.6 16.55 0.6ZM40.2-11.5L29.2-11.5 29.2-13.45 40.2-13.45 40.2-11.5ZM49.3 0L47 0 47-32.95 56.45-32.95Q58.9-32.95 60.9-32.48 62.9-32 64.3-30.95 65.7-29.9 66.47-28.25 67.25-26.6 67.25-24.25L67.25-24.25Q67.25-20.3 64.97-18.05 62.7-15.8 58.8-15.3L58.8-15.3 67.9 0 65.25 0 56.3-15.15 49.3-15.15 49.3 0ZM49.3-31L49.3-17.05 55.85-17.05Q60.25-17.05 62.57-18.82 64.9-20.6 64.9-24.25L64.9-24.25Q64.9-27.95 62.55-29.48 60.2-31 55.85-31L55.85-31 49.3-31ZM92.74 0L74.19 0 74.19-32.95 92.24-32.95 92.24-30.95 76.49-30.95 76.49-18.5 89.69-18.5 89.69-16.5 76.49-16.5 76.49-2 92.74-2 92.74 0ZM102.14 0L99.94 0 99.94-32.95 102.34-32.95 116.24-9.7 119.94-3.15 120.14-3.15Q120.04-5.55 119.94-7.95 119.84-10.35 119.84-12.75L119.84-12.75 119.84-32.95 122.04-32.95 122.04 0 119.64 0 105.74-23.25 102.04-29.8 101.84-29.8Q101.94-27.4 102.04-25.13 102.14-22.85 102.14-20.45L102.14-20.45 102.14 0ZM141.14 0L138.84 0 138.84-30.95 128.34-30.95 128.34-32.95 151.64-32.95 151.64-30.95 141.14-30.95 141.14 0Z" opacity="1" transform="matrix(1,0,0,1,0,0)" fill="#f49577" class="wordmark-text-0" data-fill-palette-color="primary" id="text-0"></path></svg></g></svg></g></svg></g></svg></g><g><svg viewBox="0 0 158.53884440539832 116.2123374540766" height="116.2123374540766" width="158.53884440539832"><g><svg xmlns="http://www.w3.org/2000/svg" xmlns:xlink="http://www.w3.org/1999/xlink" version="1.1" x="0" y="0" viewBox="13.000008583068848 18.299999237060547 85.39998626708984 62.60000228881836" enable-background="new 0 0 100 100" xml:space="preserve" height="116.2123374540766" width="158.53884440539832" class="icon-icon-0" data-fill-palette-color="accent" id="icon-0"><g fill="#f49577" data-fill-palette-color="accent"><g fill="#f49577" data-fill-palette-color="accent"><g fill="#f49577" data-fill-palette-color="accent"><path d="M58.8 59H47.1v0H35.3c-0.3 0-0.6 0.3-0.6 0.6 0 0.3 0.3 0.6 0.6 0.6h11.7v0h11.8c0.3 0 0.6-0.3 0.6-0.6C59.4 59.3 59.1 59 58.8 59z" fill="#f49577" data-fill-palette-color="accent"></path></g></g><g fill="#f49577" data-fill-palette-color="accent"><g fill="#f49577" data-fill-palette-color="accent"><path d="M58.3 61.1H47.1v0H35.8c-0.3 0-0.6 0.3-0.6 0.6 0 0.3 0.3 0.6 0.6 0.6h11.1v0h11.3c0.3 0 0.6-0.3 0.6-0.6C58.8 61.4 58.6 61.1 58.3 61.1z" fill="#f49577" data-fill-palette-color="accent"></path></g></g><g fill="#f49577" data-fill-palette-color="accent"><g fill="#f49577" data-fill-palette-color="accent"><path d="M56.5 67.1h-9.4v0h-9.5c-0.3 0-0.6 0.3-0.6 0.6 0 0.3 0.3 0.6 0.6 0.6h9.4v0h9.5c0.3 0 0.6-0.3 0.6-0.6C57 67.4 56.8 67.1 56.5 67.1z" fill="#f49577" data-fill-palette-color="accent"></path></g></g><g fill="#f49577" data-fill-palette-color="accent"><g fill="#f49577" data-fill-palette-color="accent"><path d="M55.9 69.1h-8.8v0h-8.9c-0.3 0-0.6 0.3-0.6 0.6 0 0.3 0.3 0.6 0.6 0.6h8.8v0h8.9c0.3 0 0.6-0.3 0.6-0.6C56.5 69.3 56.2 69.1 55.9 69.1z" fill="#f49577" data-fill-palette-color="accent"></path></g></g><g fill="#f49577" data-fill-palette-color="accent"><g fill="#f49577" data-fill-palette-color="accent"><path d="M57.7 63.1H47.1v0H36.4c-0.3 0-0.6 0.3-0.6 0.6 0 0.3 0.3 0.6 0.6 0.6h10.6v0h10.7c0.3 0 0.6-0.3 0.6-0.6C58.3 63.4 58 63.1 57.7 63.1z" fill="#f49577" data-fill-palette-color="accent"></path></g></g><g fill="#f49577" data-fill-palette-color="accent"><g fill="#f49577" data-fill-palette-color="accent"><path d="M57.1 65.1h-10v0H37c-0.3 0-0.6 0.3-0.6 0.6s0.3 0.6 0.6 0.6h10v0h10.1c0.3 0 0.6-0.3 0.6-0.6C57.7 65.3 57.4 65.1 57.1 65.1z" fill="#f49577" data-fill-palette-color="accent"></path></g></g></g><path d="M78 59.5c-11.7 0-21.3-9.5-21.3-21.3 0-1.3 0.1-2.5 0.3-3.7l-10 0v0l-17.7 0c0 0-2.6-0.1-3.5 1.9-0.7 1.4-3.3 6.2-4.7 8.6-0.4 0-0.8 0-1 0-0.5 0-0.4-0.2-0.3-0.3 0.6-0.9 0.7-2.6-0.5-2.8-1.3-0.3-4.7 0.3-5.7 1.3s0.1 3.4 1.7 3.4c1 0 3.3 0 4.9 0l-2.2 3.1 3 5.4c1.2 0.1 2.5 0.5 3.9 1.1 2.7 1.2 3.9 2.1 4.3 2.9l3.9 0.8c-0.3-2.5 1.9-2.5 2.3-2.5 0.5 0 10.7 0.1 11.3 0.1 1.1 0 10.8-0.1 11.2-0.1 0.4 0 2.5 0 2.3 2.5l3.9-0.8c0.1-0.2 0.3-0.4 0.5-0.6 1.4 0.9 2.9 1.6 4.5 2.2-3.5 0.3-4.9 0.3-5.2-0.4-0.1-0.2-0.2-0.5-0.1-0.8l-3.8 0.7c0 0.1-0.1 0.3-0.1 0.4-0.9 3.3-1.4 5.6-2.1 7.9s-2 3.2-6.2 3.2-5.3 0-5.3 0v0c-0.4 0-1.7 0-5.1 0-4.2 0-5.5-0.8-6.2-3.2s-1.2-4.7-2.1-7.9c0-0.1-0.1-0.3-0.1-0.4l-3.8-0.7c0.1 0.3 0 0.6-0.1 0.8-0.3 0.8-2.2 0.7-7.2 0.2-5-0.6-6.4-0.9-6.1-3.3 0.2-1.5 1.9-2.4 4.4-2.2l-2.8-5-2.9 4.1c0 0-0.8 1.2-0.8 2.8 0 0.4 0 1.4 0 2.8-0.3 0.3-0.5 0.7-0.5 1.2v18.5c0 0.8 0.7 1.5 1.5 1.5h5.1c0.8 0 1.5-0.7 1.5-1.5v-2.1h2.2c0.8 0 1.5-0.7 1.5-1.5v-0.3c2.2 0 4.2 0 5.4 0 2.9 0 2.7-1.2 5.9-1.2 3 0 9 0 10 0v0c0 0 6.9 0 10.1 0 3.2 0 3 1.2 5.9 1.2 1.2 0 3.2 0 5.4 0v0.3c0 0.8 0.7 1.5 1.5 1.5h2.2v2.1c0 0.8 0.7 1.5 1.5 1.5h5.1c0.8 0 1.5-0.7 1.5-1.5V62c0 0 0 0 0 0 0 0-0.5-1-1.2-2.6C78.7 59.5 78.4 59.5 78 59.5zM47 46.9L47 46.9c-1.8 0-21.9 0-23.2 0-1.1 0-0.6-0.9-0.6-0.9l4.6-8.9c0 0 0.4-1 1.9-1s17.5 0 17.5 0v0c0.7 0 3.8 0 7.2 0-0.1 0.9-0.1 1.9-0.1 2.8 0 2.8 0.5 5.5 1.4 8C50.9 46.9 47 46.9 47 46.9zM32.7 72.3c-0.4 0.2-1 0.6-1.4 0.8-0.3 0.1-0.5 0.2-1.1 0.2s-5.7 0-10.5 0c-2.5 0-3.2-3.4-3.2-5.2 0-0.6 0.6-0.6 1-0.6 3.3 0.3 9.9 1.4 10.7 1.5 0.8 0.1 1.1 0.3 1.5 0.5 0.9 0.6 2.6 1.7 3.2 2.2C33.1 71.9 33 72.2 32.7 72.3zM74.4 73.3c-4.8 0-9.9 0-10.5 0s-0.8-0.1-1.1-0.2c-0.4-0.2-1.1-0.5-1.4-0.8-0.3-0.2-0.4-0.4-0.1-0.6 0.6-0.5 2.3-1.6 3.2-2.2 0.3-0.2 0.6-0.4 1.5-0.5 0.7-0.1 7.4-1.3 10.7-1.5 0.4 0 1 0 1 0.6C77.6 69.9 76.9 73.3 74.4 73.3z" fill="#f49577" data-fill-palette-color="accent"></path><path d="M61.6 51.7c-0.8 0.6-1.7 0.9-2.7 0.9-2.5 0-4.5-2-4.5-4.5 0-2 1.4-3.7 3.2-4.3-0.1-0.5-0.3-1.1-0.4-1.6-2.6 0.7-4.5 3.1-4.5 5.9 0 3.4 2.8 6.2 6.2 6.2 1.5 0 2.8-0.5 3.8-1.3C62.3 52.6 61.9 52.1 61.6 51.7z" fill="#f49577" data-fill-palette-color="accent"></path><g fill="#f49577" data-fill-palette-color="accent"><path fill="#f49577" d="M78.6 18.3c-10.9 0-19.8 8.8-19.8 19.8 0 10.9 8.8 19.8 19.8 19.8 10.9 0 19.8-8.8 19.8-19.8C98.4 27.1 89.5 18.3 78.6 18.3zM64.6 39.8h-3v-3h3V39.8zM78.6 20.8h1v3h-1V20.8zM78.6 35.4v0.1c0 1.1-0.6 1.9-1.7 1.8-2.5-0.2-7.3-1.1-9.6-1.5-0.5-0.1-0.5-0.7-0.1-0.7 2.6-0.4 7.1-1.2 9.7-1.5C78 33.6 78.6 34.3 78.6 35.4zM67.1 25.3l2 2-1.2 1.2-2-2L67.1 25.3zM67.1 50.7l-1.2-1.2 2-2 1.2 1.2L67.1 50.7zM79.6 54.8h-2v-2h2V54.8zM78.8 50c-6.6 0-12-5.4-12-12h12V26c6.6 0 12 5.4 12 12S85.4 50 78.8 50zM90.2 50.7l-2-2 1.2-1.2 2 2L90.2 50.7zM89.3 28.5l-1.2-1.2 2-2 1.2 1.2L89.3 28.5zM92.6 39.8v-3h3v3H92.6z" data-fill-palette-color="accent"></path></g></svg></g></svg></g></svg></g></svg></g></svg></g><g><path d="M0 123.6c0-68.262 55.338-123.6 123.6-123.6 55.001 0 101.61 35.924 117.645 85.589h-1.561c-15.98-48.831-61.912-84.104-116.084-84.104-67.443 0-122.115 54.673-122.115 122.115 0 67.443 54.673 122.115 122.115 122.115 54.171 0 100.104-35.273 116.084-84.104h1.561c-16.035 49.664-62.645 85.589-117.645 85.589-68.262 0-123.6-55.338-123.6-123.6z" fill="#f49577" stroke="transparent" data-fill-palette-color="tertiary"></path></g></svg></g><defs></defs></svg><rect width="395.52" height="247.2" fill="none" stroke="none" visibility="hidden"></rect></g></svg></g></svg>